<?xml version="1.0" standalone="no"?>
<!DOCTYPE svg PUBLIC "-//W3C//DTD SVG 20010904//EN"
 "http://www.w3.org/TR/2001/REC-SVG-20010904/DTD/svg10.dtd">
<svg version="1.0" xmlns="http://www.w3.org/2000/svg"
 width="738.000000pt" height="738.000000pt" viewBox="0 0 738.000000 738.000000"
 preserveAspectRatio="xMidYMid meet">
<metadata>
Created by potrace 1.14, written by Peter Selinger 2001-2017
</metadata>
<g transform="translate(0.000000,738.000000) scale(0.100000,-0.100000)"
fill="#000000" stroke="none">
<path d="M1488 6785 c-2 -2 -46 -6 -98 -10 -52 -3 -111 -8 -130 -10 -19 -2
-64 -7 -100 -11 -36 -3 -73 -8 -83 -10 -10 -2 -45 -6 -78 -9 -33 -4 -70 -8
-81 -10 -11 -3 -46 -7 -77 -11 -31 -3 -65 -8 -76 -10 -11 -2 -40 -7 -65 -10
-25 -3 -54 -8 -65 -10 -11 -2 -60 -11 -110 -19 -49 -9 -110 -20 -135 -25 -25
-5 -58 -12 -75 -15 -58 -10 -91 -16 -153 -30 -34 -8 -77 -17 -95 -20 -17 -3
-40 -8 -49 -11 -17 -5 -18 -138 -18 -2604 l0 -2600 23 9 c13 5 37 11 53 14 16
3 99 19 184 36 85 17 171 33 190 36 19 3 42 8 50 10 8 2 38 6 65 10 28 3 57 8
65 10 8 2 40 6 71 10 31 3 67 8 79 10 12 2 51 7 88 10 37 4 78 8 92 10 14 2
66 7 115 11 50 4 101 8 115 9 14 2 34 3 45 4 20 1 20 7 20 1282 0 871 3 1283
10 1289 6 5 22 11 35 14 14 2 65 14 114 26 50 11 106 23 125 26 20 3 52 9 71
14 19 5 53 11 75 15 35 5 109 17 185 31 14 2 50 6 80 9 30 3 62 8 70 10 18 5
105 13 245 24 105 8 453 6 494 -3 13 -3 49 -8 80 -12 31 -3 59 -8 62 -10 3 -2
19 -6 36 -8 61 -11 200 -56 268 -86 89 -40 224 -129 264 -175 24 -27 31 -32
32 -18 5 107 -1 1603 -6 1648 -4 33 -7 67 -7 75 -1 26 -26 167 -39 212 -7 23
-13 48 -15 53 -5 25 -54 146 -77 190 -105 208 -317 375 -620 491 -80 31 -231
73 -312 88 -67 13 -163 28 -205 32 -25 3 -58 8 -75 11 -32 6 -651 13 -657 8z"/>
<path d="M5339 6786 c-2 -2 -44 -7 -94 -11 -49 -4 -92 -8 -95 -10 -3 -1 -32
-6 -65 -10 -32 -3 -62 -8 -65 -10 -3 -2 -22 -6 -42 -9 -80 -13 -132 -26 -278
-73 -198 -63 -425 -199 -538 -322 -152 -165 -240 -403 -268 -721 -3 -35 -7
-1405 -5 -1613 l1 -48 31 36 c43 48 180 138 270 176 41 17 81 34 89 39 13 6
51 17 90 25 3 1 14 4 25 8 11 3 31 8 45 11 14 3 48 9 75 15 155 30 606 34 775
7 14 -3 52 -7 85 -11 33 -3 67 -8 75 -10 8 -2 37 -6 65 -10 68 -9 356 -62 436
-81 76 -18 81 -19 137 -29 37 -7 42 -11 43 -34 0 -14 0 -594 1 -1288 l0 -1263
27 -1 c14 0 33 -2 41 -3 8 -2 58 -7 110 -10 148 -11 268 -24 371 -42 15 -2 47
-6 70 -9 24 -3 58 -8 74 -11 41 -8 61 -11 125 -19 30 -4 59 -10 63 -12 5 -3
23 -7 40 -9 27 -4 78 -15 300 -61 l27 -5 0 2596 c0 2068 -3 2598 -12 2601 -7
2 -24 6 -38 9 -14 3 -91 18 -172 35 -81 17 -164 33 -185 36 -21 3 -51 9 -68
12 -53 12 -59 13 -90 17 -33 5 -86 14 -125 21 -14 2 -45 7 -70 10 -25 3 -76
10 -115 15 -167 22 -334 42 -495 56 -60 6 -666 15 -671 10z"/>
<path d="M2309 3916 c-2 -2 -44 -6 -94 -10 -49 -3 -101 -8 -115 -10 -14 -3
-47 -7 -75 -11 -44 -5 -112 -15 -210 -31 -47 -7 -138 -25 -157 -30 -17 -5 -18
-86 -18 -1521 l0 -1516 43 7 c23 3 72 10 109 16 245 36 423 47 718 45 157 -2
294 -5 305 -8 11 -3 43 -8 70 -11 28 -4 61 -9 75 -11 14 -3 34 -7 45 -9 143
-27 303 -97 428 -187 52 -38 67 -45 68 -31 4 104 0 2598 -5 2659 -28 345 -196
529 -566 618 -52 13 -115 26 -140 30 -50 7 -474 17 -481 11z"/>
<path d="M4729 3916 c-2 -2 -40 -7 -84 -10 -90 -7 -252 -45 -335 -78 -266
-106 -384 -261 -415 -547 -5 -46 -10 -2525 -6 -2684 1 -15 8 -13 44 16 138
110 326 188 522 217 44 6 91 13 104 15 126 21 536 21 761 0 116 -10 177 -17
190 -20 8 -2 39 -7 68 -10 29 -3 75 -10 104 -15 28 -6 54 -10 59 -10 13 0 9
3019 -4 3027 -7 4 -16 8 -22 9 -5 1 -35 6 -65 13 -30 6 -70 13 -87 16 -18 3
-45 7 -60 9 -60 10 -191 27 -243 32 -30 3 -66 7 -80 10 -32 6 -446 15 -451 10z"/>
</g>
</svg>
