<svg id="Ebene_1" data-name="Ebene 1" xmlns="http://www.w3.org/2000/svg" viewBox="0 0 483.64 130.4"><rect x="-19.06" y="-16.63" width="520" height="156.67" style="fill:none"/><path d="M27.83,55.58Q35,53.95,41.19,53.11a86.07,86.07,0,0,1,11.23-.83c8.27,0,14.79,1.73,19.42,5.48a12.81,12.81,0,0,1,1.6,1.61v-31q0-14.64-7.67-20.7Q56.19,0,37.53,0a131.47,131.47,0,0,0-17,1.23Q11.11,2.37,0,4.85v109a160.93,160.93,0,0,1,18.51-3.21c2.6-.29,5.19-.5,7.77-.67v-54Z" style="fill:#33a8e0"/><path d="M127.19,55.58q-7.23-1.63-13.36-2.47a86.07,86.07,0,0,0-11.23-.83c-8.27,0-14.79,1.73-19.42,5.48a12.81,12.81,0,0,0-1.6,1.61v-31q0-14.64,7.67-20.7Q98.84,0,117.49,0a131.47,131.47,0,0,1,17,1.23Q143.95,2.37,155,4.85v109a160.93,160.93,0,0,0-18.51-3.21c-2.6-.29-5.19-.5-7.77-.67v-54Z" style="fill:#f39100"/><path d="M69.3,64.86c-3.56-3-9.08-4.61-16.74-4.61a79.65,79.65,0,0,0-10.58.8c-2.38.32-4.9.76-7.56,1.28V126c1.95-.35,3.89-.64,5.84-.87a103.32,103.32,0,0,1,11.92-.7c6,0,10.75.61,14.43,1.93a23.45,23.45,0,0,1,6.83,4V76.91C73.43,70.79,71.94,67,69.3,64.86Z" style="fill:#33a8e0"/><path d="M120.57,62.37c-2.64-.52-5.17-1-7.54-1.28a79.65,79.65,0,0,0-10.58-.8c-7.66,0-13.18,1.65-16.74,4.61-2.62,2.14-4.13,5.93-4.13,12v53.42a23.45,23.45,0,0,1,6.83-4c3.68-1.32,8.45-1.92,14.43-1.93a103.32,103.32,0,0,1,11.92.7c1.94.23,3.88.51,5.82.86Z" style="fill:#f39100"/><path d="M212.7,52.76H184.39v-43H212.7v7.48H192.78V27.37h17v7.48h-17V45.28H212.7Z" style="fill:#6e6e6e"/><path d="M250.11,40.08a11.4,11.4,0,0,1-4.5,9.57,18.1,18.1,0,0,1-11.44,3.47q-10.09,0-15.7-5.67L223.94,42q3.62,3.62,10.38,3.62,7.62,0,7.62-5.26a4.71,4.71,0,0,0-1.27-3.59,7,7,0,0,0-3.86-1.54l-5.2-.72q-11.4-1.58-11.41-12a12,12,0,0,1,4-9.45q4-3.6,10.93-3.59,8.69,0,13.88,5l-5.31,5.25q-3.07-3-8.81-3a7.14,7.14,0,0,0-4.95,1.53,5,5,0,0,0-1.72,3.89,4.13,4.13,0,0,0,1.36,3.14,7,7,0,0,0,3.89,1.63l5.08.72c3.66.53,6.4,1.63,8.21,3.32Q250.11,34.11,250.11,40.08Z" style="fill:#6e6e6e"/><path d="M288.41,23.18a12.81,12.81,0,0,1-3.74,9.42,14.1,14.1,0,0,1-10.45,4h-8.28V52.76h-8.39v-43h16.66a14.1,14.1,0,0,1,10.45,4A12.78,12.78,0,0,1,288.41,23.18Zm-8.39,0a5.7,5.7,0,0,0-1.69-4.29,6.24,6.24,0,0,0-4.53-1.63h-7.86V29h7.85a6.33,6.33,0,0,0,4.53-1.6A5.58,5.58,0,0,0,280,23.18Z" style="fill:#6e6e6e"/><path d="M328.05,52.76h-9.72l-8.39-17.14h-6V52.76h-8.39v-43h16.84a13.86,13.86,0,0,1,10.26,3.86,12.59,12.59,0,0,1,3.68,9.3,11.49,11.49,0,0,1-7.85,11.29ZM317.94,22.91a5.29,5.29,0,0,0-1.69-4.08,6.25,6.25,0,0,0-4.41-1.56h-7.9V28.55h7.91A6.25,6.25,0,0,0,316.26,27,5.28,5.28,0,0,0,317.94,22.91Z" style="fill:#6e6e6e"/><path d="M363.4,52.76H335.09v-43H363.4v7.48H343.48V27.37h17v7.48h-17V45.28H363.4Z" style="fill:#6e6e6e"/><path d="M400.81,40.08a11.4,11.4,0,0,1-4.5,9.57,18.16,18.16,0,0,1-11.44,3.47q-10.1,0-15.7-5.67L374.6,42q3.61,3.61,10.38,3.62,7.61,0,7.61-5.31a4.71,4.71,0,0,0-1.27-3.59,7,7,0,0,0-3.86-1.54l-5.2-.72q-11.4-1.57-11.41-12a12,12,0,0,1,4-9.45q4.09-3.66,11-3.66,8.7,0,13.88,5l-5.31,5.25q-3.07-3-8.81-3a7.12,7.12,0,0,0-4.92,1.54,5,5,0,0,0-1.73,4,4.13,4.13,0,0,0,1.36,3.14,7,7,0,0,0,3.89,1.63l5.08.72c3.66.53,6.4,1.63,8.21,3.32Q400.79,34.11,400.81,40.08Z" style="fill:#6e6e6e"/><path d="M437.27,40.08a11.4,11.4,0,0,1-4.5,9.57,18.15,18.15,0,0,1-11.43,3.47q-10.09,0-15.7-5.67L411.07,42q3.62,3.61,10.38,3.62,7.6,0,7.61-5.31a4.71,4.71,0,0,0-1.27-3.59,7.07,7.07,0,0,0-3.85-1.55l-5.2-.72q-11.4-1.57-11.41-12a12,12,0,0,1,4-9.45q4-3.6,10.93-3.59,8.69,0,13.88,5l-5.31,5.25q-3.07-3-8.81-3a7.12,7.12,0,0,0-4.92,1.54,5,5,0,0,0-1.72,3.89,4.13,4.13,0,0,0,1.36,3.14,7,7,0,0,0,3.89,1.63l5.08.72c3.66.53,6.4,1.63,8.21,3.32Q437.27,34.11,437.27,40.08Z" style="fill:#6e6e6e"/><path d="M475.7,31.27a56.44,56.44,0,0,1-.54,9.72,13.56,13.56,0,0,1-3.75,7.38,16.7,16.7,0,0,1-23.25,0,13.79,13.79,0,0,1-3.74-7.43,65.13,65.13,0,0,1-.48-9.67,65.74,65.74,0,0,1,.48-9.72,13.76,13.76,0,0,1,3.74-7.42,16.7,16.7,0,0,1,23.25,0,13.59,13.59,0,0,1,3.74,7.42A57.46,57.46,0,0,1,475.7,31.27Zm-8.39,0q0-4.95-.12-6.28-.36-4-2-5.79a7.51,7.51,0,0,0-10.8,0Q452.81,21,452.46,25q-.12,1.1-.12,6.28t.12,6.28q.36,4,1.93,5.8a7,7,0,0,0,5.43,2.29,6.83,6.83,0,0,0,5.86-2.9q1.63-2.24,1.62-11.47Z" style="fill:#6e6e6e"/><path d="M212,79.53H200.81V115h-8.39V79.53H181.19V72.05H212Z" style="fill:#6e6e6e"/><path d="M248.18,100.3a14.17,14.17,0,0,1-4.53,10.9,17.3,17.3,0,0,1-22.58,0,14.17,14.17,0,0,1-4.53-10.9V72.05h8.4v28a8.12,8.12,0,0,0,2,5.79,7.12,7.12,0,0,0,5.43,2.11,7.22,7.22,0,0,0,5.46-2.11,8,8,0,0,0,2-5.79v-28h8.33Z" style="fill:#6e6e6e"/><path d="M283.54,79.53H272.31V115h-8.37V79.53H252.7V72.05h30.84Z" style="fill:#6e6e6e"/><path d="M318.72,93.54a58.51,58.51,0,0,1-.54,9.72,13.58,13.58,0,0,1-3.74,7.43,16.7,16.7,0,0,1-23.25,0,13.79,13.79,0,0,1-3.74-7.43,65.74,65.74,0,0,1-.48-9.72,65.74,65.74,0,0,1,.48-9.72,13.84,13.84,0,0,1,3.74-7.45,16.7,16.7,0,0,1,23.25,0,13.58,13.58,0,0,1,3.74,7.43A58.75,58.75,0,0,1,318.72,93.54Zm-8.39,0q0-5-.12-6.28-.36-4-2-5.8a7.52,7.52,0,0,0-10.62-.18l-.18.18q-1.57,1.82-1.93,5.8-.14,1.09-.12,6.28t.12,6.28q.36,4,1.93,5.79a6.93,6.93,0,0,0,5.43,2.3,6.84,6.84,0,0,0,5.86-2.9q1.64-2.24,1.63-11.47Z" style="fill:#6e6e6e"/><path d="M358.56,115h-9.72l-8.39-17.14h-6V115h-8.39V72H342.9a13.89,13.89,0,0,1,10.26,3.87,12.61,12.61,0,0,1,3.68,9.29,11.48,11.48,0,0,1-7.9,11.31ZM348.42,85.18a5.29,5.29,0,0,0-1.69-4.08,6.25,6.25,0,0,0-4.41-1.56h-7.91V90.83h7.91a6.25,6.25,0,0,0,4.41-1.56,5.31,5.31,0,0,0,1.68-4.09Z" style="fill:#6e6e6e"/><path d="M373.94,115h-8.39V72h8.39Z" style="fill:#6e6e6e"/><path d="M418.12,115h-8.75l-2.54-7.61H391.56L389,115h-8.75l15.64-43h6.58ZM404.6,100.37l-5.25-15.64-5.41,15.64Z" style="fill:#6e6e6e"/><path d="M449.05,115H424.32V72h8.39v35.5h16.34Z" style="fill:#6e6e6e"/><path d="M483.63,102.37a11.4,11.4,0,0,1-4.5,9.57,18.12,18.12,0,0,1-11.43,3.43q-10.09,0-15.7-5.67l5.43-5.43q3.61,3.63,10.38,3.63,7.6,0,7.61-5.31A4.71,4.71,0,0,0,474.15,99a7,7,0,0,0-3.86-1.54l-5.2-.72q-11.4-1.58-11.41-12a12,12,0,0,1,4-9.45q4-3.58,10.93-3.59,8.68,0,13.88,5L477.18,82c-2.05-2-5-3-8.81-3a7.12,7.12,0,0,0-4.92,1.54,5,5,0,0,0-1.72,3.89,4.13,4.13,0,0,0,1.36,3.14A7,7,0,0,0,467,89.15l5.07.72c3.66.53,6.4,1.63,8.21,3.32Q483.64,96.37,483.63,102.37Z" style="fill:#6e6e6e"/></svg>